<?xml version="1.0" encoding="utf-8"?>
<!-- Generator: Adobe Illustrator 13.0.0, SVG Export Plug-In  -->
<!DOCTYPE svg PUBLIC "-//W3C//DTD SVG 1.1//EN" "http://www.w3.org/Graphics/SVG/1.1/DTD/svg11.dtd" [
	<!ENTITY ns_flows "http://ns.adobe.com/Flows/1.0/">
]>
<svg version="1.1"
	 xmlns="http://www.w3.org/2000/svg" xmlns:xlink="http://www.w3.org/1999/xlink" xmlns:a="http://ns.adobe.com/AdobeSVGViewerExtensions/3.0/"
	 x="0px" y="0px" width="228px" height="51px" viewBox="0 0 228 51" enable-background="new 0 0 228 51" xml:space="preserve">
<defs>
</defs>
<path fill="#003087" d="M36.759,3.844C34.4,1.154,30.135,0,24.68,0H8.85C7.73,0,6.781,0.813,6.609,1.914L0.018,43.719
	c-0.131,0.824,0.506,1.574,1.34,1.574h9.779l2.453-15.569l-0.075,0.487c0.176-1.102,1.116-1.914,2.229-1.914h4.645
	c9.126,0,16.269-3.708,18.357-14.427c0.059-0.315,0.113-0.624,0.16-0.926c-0.266-0.14-0.266-0.14,0,0
	C39.527,8.983,38.902,6.283,36.759,3.844"/>
<path fill="#009CDE" d="M173.288,6.343h-13.021c-0.896,0-1.648,0.647-1.789,1.524l-5.266,33.386
	c-0.105,0.656,0.409,1.251,1.072,1.251h6.681c0.621,0,1.156-0.454,1.251-1.065l1.492-9.465c0.141-0.878,0.898-1.53,1.785-1.53h4.118
	c8.58,0,13.531-4.148,14.821-12.377c0.588-3.6,0.026-6.423-1.658-8.398C180.921,7.493,177.639,6.343,173.288,6.343 M174.784,18.534
	c-0.708,4.675-4.278,4.675-7.733,4.675h-1.963l1.379-8.73c0.082-0.524,0.542-0.912,1.075-0.912h0.899c2.351,0,4.565,0,5.711,1.335
	C174.841,15.706,175.046,16.896,174.784,18.534"/>
<path fill="#003087" d="M80.424,6.343H67.398c-0.884,0-1.643,0.647-1.785,1.524l-5.262,33.386c-0.105,0.656,0.406,1.251,1.07,1.251
	h6.221c0.888,0,1.645-0.645,1.782-1.523l1.424-9.007c0.136-0.878,0.896-1.53,1.784-1.53h4.121c8.573,0,13.527-4.148,14.816-12.377
	c0.585-3.6,0.025-6.423-1.66-8.398C88.063,7.493,84.779,6.343,80.424,6.343 M81.924,18.534c-0.712,4.675-4.277,4.675-7.73,4.675
	h-1.964l1.38-8.73c0.08-0.524,0.53-0.912,1.066-0.912h0.9c2.354,0,4.573,0,5.715,1.335C81.976,15.706,82.186,16.896,81.924,18.534"
	/>
<path fill="#003087" d="M119.338,18.383h-6.234c-0.533,0-0.99,0.388-1.076,0.918l-0.269,1.742l-0.44-0.629
	c-1.349-1.961-4.355-2.618-7.365-2.618c-6.881,0-12.77,5.219-13.915,12.544c-0.593,3.649,0.253,7.143,2.325,9.577
	c1.899,2.236,4.617,3.171,7.849,3.171c5.559,0,8.634-3.566,8.634-3.566l-0.279,1.732c-0.105,0.656,0.406,1.251,1.074,1.251h5.611
	c0.889,0,1.648-0.645,1.788-1.523l3.374-21.342C120.513,18.978,120.004,18.383,119.338,18.383 M110.649,30.52
	c-0.603,3.56-3.428,5.954-7.04,5.954c-1.809,0-3.257-0.581-4.182-1.682c-0.924-1.093-1.271-2.647-0.98-4.375
	c0.562-3.536,3.434-6.002,6.985-6.002c1.776,0,3.208,0.587,4.157,1.699C110.545,27.231,110.926,28.798,110.649,30.52"/>
<path fill="#009CDE" d="M212.197,18.383h-6.232c-0.533,0-0.985,0.388-1.07,0.918l-0.274,1.742l-0.436-0.629
	c-1.351-1.961-4.363-2.618-7.365-2.618c-6.889,0-12.769,5.219-13.914,12.544c-0.599,3.649,0.243,7.143,2.319,9.577
	c1.901,2.236,4.617,3.171,7.854,3.171c5.549,0,8.628-3.566,8.628-3.566l-0.278,1.732c-0.101,0.656,0.404,1.251,1.073,1.251h5.616
	c0.889,0,1.648-0.645,1.786-1.523l3.369-21.342C213.377,18.978,212.868,18.383,212.197,18.383 M203.509,30.52
	c-0.601,3.56-3.429,5.954-7.036,5.954c-1.809,0-3.256-0.581-4.186-1.682c-0.923-1.093-1.27-2.647-0.978-4.375
	c0.563-3.536,3.438-6.002,6.988-6.002c1.771,0,3.209,0.587,4.159,1.699C203.41,27.231,203.783,28.798,203.509,30.52"/>
<path fill="#003087" d="M152.543,18.385h-6.266c-0.599,0-1.164,0.299-1.498,0.795l-8.644,12.729l-3.662-12.23
	c-0.229-0.766-0.935-1.293-1.733-1.293h-6.16c-0.746,0-1.271,0.732-1.031,1.437l6.9,20.253l-6.485,9.156
	c-0.509,0.716,0,1.711,0.886,1.711h6.259c0.589,0,1.146-0.287,1.487-0.776l20.836-30.076
	C153.933,19.37,153.415,18.385,152.543,18.385"/>
<path fill="#009CDE" d="M219.548,7.256l-5.341,33.998c-0.105,0.658,0.404,1.251,1.069,1.251h5.374c0.891,0,1.652-0.645,1.785-1.523
	l5.27-33.385c0.105-0.657-0.404-1.253-1.074-1.253h-6.01C220.088,6.343,219.631,6.729,219.548,7.256"/>
<path fill="#003087" d="M36.759,3.844C34.4,1.154,30.135,0,24.68,0H8.85C7.73,0,6.781,0.813,6.609,1.914L0.018,43.719
	c-0.131,0.824,0.506,1.574,1.34,1.574h9.779l2.453-15.569l-0.075,0.487c0.176-1.102,1.116-1.914,2.229-1.914h4.645
	c9.126,0,16.269-3.708,18.357-14.427c0.059-0.315,0.113-0.624,0.16-0.926c-0.266-0.14-0.266-0.14,0,0
	C39.527,8.983,38.902,6.283,36.759,3.844"/>
<path fill="#003087" d="M16.229,12.999c0.104-0.665,0.527-1.208,1.103-1.481c0.258-0.127,0.55-0.193,0.854-0.193h12.41
	c1.468,0,2.841,0.094,4.094,0.296c0.361,0.059,0.708,0.124,1.045,0.199c0.34,0.079,0.668,0.16,0.986,0.252
	c0.16,0.047,0.313,0.097,0.468,0.147c0.619,0.207,1.188,0.446,1.718,0.725c0.621-3.967-0.004-6.66-2.147-9.099
	C34.4,1.154,30.135,0,24.68,0H8.846C7.73,0,6.787,0.814,6.609,1.914L0.018,43.719c-0.131,0.824,0.506,1.572,1.34,1.572h9.779
	l2.453-15.572L16.229,12.999z"/>
<path fill="#009CDE" d="M38.906,12.943L38.906,12.943c-0.047,0.303-0.102,0.611-0.16,0.926
	c-2.089,10.719-9.231,14.427-18.357,14.427h-4.646c-1.111,0-2.056,0.813-2.228,1.914l-2.378,15.08l-0.678,4.277
	c-0.113,0.722,0.441,1.377,1.176,1.377h8.238c0.977,0,1.802-0.71,1.957-1.674l0.081-0.418l1.553-9.842l0.101-0.541
	c0.151-0.966,0.98-1.678,1.958-1.678h1.231c7.982,0,14.231-3.243,16.055-12.621c0.766-3.919,0.372-7.19-1.645-9.487
	C40.551,13.987,39.791,13.413,38.906,12.943"/>
<path fill="#012169" d="M36.721,12.072c-0.318-0.093-0.646-0.175-0.986-0.252c-0.337-0.076-0.688-0.141-1.045-0.199
	c-1.253-0.202-2.62-0.296-4.094-0.296h-12.41c-0.305,0-0.597,0.066-0.854,0.193c-0.575,0.272-0.998,0.816-1.103,1.482L13.59,29.724
	l-0.075,0.487c0.176-1.102,1.116-1.914,2.229-1.914h4.645c9.126,0,16.269-3.708,18.357-14.427c0.059-0.315,0.113-0.624,0.16-0.926
	c-0.529-0.278-1.099-0.521-1.718-0.725C37.033,12.169,36.881,12.119,36.721,12.072"/>
</svg>
